<svg width="414" height="260" viewBox="0 0 414 260" fill="none" xmlns="http://www.w3.org/2000/svg">
<g filter="url(#filter0_d)">
<ellipse rx="30.1488" ry="70.6927" transform="matrix(-0.974591 0.22399 0.210041 0.977693 396.401 114.256)" fill="#546638"/>
<ellipse rx="30.3213" ry="70.2918" transform="matrix(-0.829814 0.55804 0.545133 0.838349 337.451 198.855)" fill="#546638"/>
<ellipse rx="23.0085" ry="53.2634" transform="matrix(-0.849791 0.52712 0.513682 0.857981 373.874 172.18)" fill="#546638"/>
</g>
<g filter="url(#filter1_d)">
<ellipse rx="30.1488" ry="70.6927" transform="matrix(-0.991432 0.130626 0.116446 0.993197 284.446 234.937)" fill="#546638"/>
<ellipse rx="30.3213" ry="70.2918" transform="matrix(-0.991355 -0.131209 -0.146532 0.989206 164.359 248.511)" fill="#546638"/>
<ellipse rx="34.4429" ry="75.9053" transform="matrix(-0.944901 -0.327357 -0.341938 0.939722 103.384 227.994)" fill="#546638"/>
<ellipse rx="34.366" ry="66.927" transform="matrix(-0.993198 0.116439 0.100795 0.994907 226.762 243.977)" fill="#546638"/>
</g>
<g filter="url(#filter2_d)">
<ellipse cx="3.4369" cy="99.1252" rx="30.5" ry="71" transform="rotate(21.2253 3.4369 99.1252)" fill="#546638"/>
<ellipse cx="49.3708" cy="191.581" rx="30.5" ry="71" transform="rotate(42.1706 49.3708 191.581)" fill="#546638"/>
<ellipse cx="16.9895" cy="159.782" rx="23.1574" ry="53.7689" transform="rotate(40.0536 16.9895 159.782)" fill="#546638"/>
</g>
<g filter="url(#filter3_d)">
<ellipse rx="33.3302" ry="87.0549" transform="matrix(-0.963737 0.266855 0.110084 0.993922 397.533 174.501)" fill="#647D3D"/>
<ellipse rx="35.7786" ry="81.619" transform="matrix(-0.797331 0.603542 0.437158 0.899385 326.575 281.513)" fill="#647D3D"/>
<ellipse rx="26.9729" ry="62.2631" transform="matrix(-0.818406 0.57464 0.403847 0.914827 368.07 247.516)" fill="#647D3D"/>
</g>
<g filter="url(#filter4_d)">
<ellipse rx="37.7729" ry="87.1229" transform="matrix(0.978885 0.204412 -0.219416 0.975631 -20.961 149.133)" fill="#647D3D"/>
<ellipse rx="37.5362" ry="87.6755" transform="matrix(0.841761 0.53985 -0.554572 0.832136 52.7993 251.715)" fill="#647D3D"/>
<ellipse rx="28.5184" ry="66.3541" transform="matrix(0.861178 0.508304 -0.523544 0.851998 7.07402 219.707)" fill="#647D3D"/>
</g>
<g filter="url(#filter5_d)">
<ellipse rx="41.0516" ry="90.6835" transform="matrix(0.994335 0.106293 -0.130719 0.991419 121.286 294.119)" fill="#647D3D"/>
<ellipse rx="41.3283" ry="91.1385" transform="matrix(0.997448 -0.0713997 0.0450634 0.998984 260.367 293.051)" fill="#647D3D"/>
<ellipse rx="33.1742" ry="68.4869" transform="matrix(0.999244 -0.0388865 0.0121426 0.999926 191.624 290.115)" fill="#647D3D"/>
</g>
<defs>
<filter id="filter0_d" x="287.605" y="44.8058" width="145.724" height="223.376" filterUnits="userSpaceOnUse" color-interpolation-filters="sRGB">
<feFlood flood-opacity="0" result="BackgroundImageFix"/>
<feColorMatrix in="SourceAlpha" type="matrix" values="0 0 0 0 0 0 0 0 0 0 0 0 0 0 0 0 0 0 127 0"/>
<feOffset dy="4"/>
<feGaussianBlur stdDeviation="2"/>
<feColorMatrix type="matrix" values="0 0 0 0 0 0 0 0 0 0 0 0 0 0 0 0 0 0 0.25 0"/>
<feBlend mode="normal" in2="BackgroundImageFix" result="effect1_dropShadow"/>
<feBlend mode="normal" in="SourceGraphic" in2="effect1_dropShadow" result="shape"/>
</filter>
<filter id="filter1_d" x="57.7546" y="155.768" width="261.703" height="170.392" filterUnits="userSpaceOnUse" color-interpolation-filters="sRGB">
<feFlood flood-opacity="0" result="BackgroundImageFix"/>
<feColorMatrix in="SourceAlpha" type="matrix" values="0 0 0 0 0 0 0 0 0 0 0 0 0 0 0 0 0 0 127 0"/>
<feOffset dy="4"/>
<feGaussianBlur stdDeviation="2"/>
<feColorMatrix type="matrix" values="0 0 0 0 0 0 0 0 0 0 0 0 0 0 0 0 0 0 0.25 0"/>
<feBlend mode="normal" in2="BackgroundImageFix" result="effect1_dropShadow"/>
<feBlend mode="normal" in="SourceGraphic" in2="effect1_dropShadow" result="shape"/>
</filter>
<filter id="filter2_d" x="-38.8915" y="32.0162" width="145.029" height="224.045" filterUnits="userSpaceOnUse" color-interpolation-filters="sRGB">
<feFlood flood-opacity="0" result="BackgroundImageFix"/>
<feColorMatrix in="SourceAlpha" type="matrix" values="0 0 0 0 0 0 0 0 0 0 0 0 0 0 0 0 0 0 127 0"/>
<feOffset dy="4"/>
<feGaussianBlur stdDeviation="2"/>
<feColorMatrix type="matrix" values="0 0 0 0 0 0 0 0 0 0 0 0 0 0 0 0 0 0 0.25 0"/>
<feBlend mode="normal" in2="BackgroundImageFix" result="effect1_dropShadow"/>
<feBlend mode="normal" in="SourceGraphic" in2="effect1_dropShadow" result="shape"/>
</filter>
<filter id="filter3_d" x="276.89" y="87.5128" width="158.172" height="278.537" filterUnits="userSpaceOnUse" color-interpolation-filters="sRGB">
<feFlood flood-opacity="0" result="BackgroundImageFix"/>
<feColorMatrix in="SourceAlpha" type="matrix" values="0 0 0 0 0 0 0 0 0 0 0 0 0 0 0 0 0 0 127 0"/>
<feOffset dy="4"/>
<feGaussianBlur stdDeviation="2"/>
<feColorMatrix type="matrix" values="0 0 0 0 0 0 0 0 0 0 0 0 0 0 0 0 0 0 0.25 0"/>
<feBlend mode="normal" in2="BackgroundImageFix" result="effect1_dropShadow"/>
<feBlend mode="normal" in="SourceGraphic" in2="effect1_dropShadow" result="shape"/>
</filter>
<filter id="filter4_d" x="-66.5943" y="63.7776" width="181.387" height="271.677" filterUnits="userSpaceOnUse" color-interpolation-filters="sRGB">
<feFlood flood-opacity="0" result="BackgroundImageFix"/>
<feColorMatrix in="SourceAlpha" type="matrix" values="0 0 0 0 0 0 0 0 0 0 0 0 0 0 0 0 0 0 127 0"/>
<feOffset dy="4"/>
<feGaussianBlur stdDeviation="2"/>
<feColorMatrix type="matrix" values="0 0 0 0 0 0 0 0 0 0 0 0 0 0 0 0 0 0 0.25 0"/>
<feBlend mode="normal" in2="BackgroundImageFix" result="effect1_dropShadow"/>
<feBlend mode="normal" in="SourceGraphic" in2="effect1_dropShadow" result="shape"/>
</filter>
<filter id="filter5_d" x="74.7695" y="201.957" width="231.027" height="190.189" filterUnits="userSpaceOnUse" color-interpolation-filters="sRGB">
<feFlood flood-opacity="0" result="BackgroundImageFix"/>
<feColorMatrix in="SourceAlpha" type="matrix" values="0 0 0 0 0 0 0 0 0 0 0 0 0 0 0 0 0 0 127 0"/>
<feOffset dy="4"/>
<feGaussianBlur stdDeviation="2"/>
<feColorMatrix type="matrix" values="0 0 0 0 0 0 0 0 0 0 0 0 0 0 0 0 0 0 0.25 0"/>
<feBlend mode="normal" in2="BackgroundImageFix" result="effect1_dropShadow"/>
<feBlend mode="normal" in="SourceGraphic" in2="effect1_dropShadow" result="shape"/>
</filter>
</defs>
</svg>
