<svg width="297" height="304" viewBox="0 0 297 304" fill="none" xmlns="http://www.w3.org/2000/svg">
<circle cx="148" cy="150" r="80" fill="#303922"/>
<g clip-path="url(#clip0)">
<path d="M128.527 90.6459C117.708 84.4401 108.937 89.524 108.937 101.992V193.999C108.937 206.48 117.708 211.557 128.527 205.357L208.946 159.237C219.768 153.029 219.768 142.971 208.946 136.765L128.527 90.6459Z" fill="#647D3D"/>
</g>
<g filter="url(#filter0_d)">
<path d="M118.4 136.365C118.4 136.365 108.715 138.609 102.701 142.581C102.701 142.581 93.6567 166.828 93.6037 180.78C93.6037 180.78 77.0105 184.862 67.7926 191.744L68.9414 214.166L90.8153 226.131L91.8867 215.615L78.9291 208.116L78.2715 197.065L110.451 196.986C110.451 196.986 132.851 177.166 140.657 163.754C140.657 163.754 142.144 155.521 138.523 148.606L118.4 136.365Z" fill="#9A5721"/>
<path d="M251.47 122.383C249.147 122.59 245.092 120.207 245.092 120.207C239.421 123.835 229.499 125.646 229.499 125.646C215.681 123.106 194.072 108.603 194.072 108.603L187.338 143.777C177.065 157.921 134.899 178.233 134.899 178.233C134.899 178.233 124.918 179.778 111.94 165.711C110.871 164.552 109.787 163.29 108.682 161.914C108.65 161.87 108.613 161.827 108.575 161.788C106.417 159.134 103.5 157.116 100.093 155.598C97.9828 154.651 95.6871 153.9 93.2688 153.313C78.3612 149.663 58.8089 152.16 49.6731 153.699C46.4738 154.238 44.55 154.658 44.55 154.658C58.0175 137.979 86.3599 116.578 115.059 112.956C143.758 109.327 168.912 115.49 168.912 115.49C172.457 96.2715 184.505 77.0521 184.505 77.0521C191.43 74.8597 198.201 74.4683 203.462 74.6858C209.505 74.9254 213.555 75.964 213.555 75.964C238.002 92.2837 252.176 110.05 252.176 110.05C252.176 110.05 253.133 120.696 251.47 122.383Z" fill="#FFAF3D"/>
<path d="M245.091 120.207L239.067 114.042L233.045 114.405L229.501 107.514L222.592 108.602L217.809 103.525L210.723 102.437L206.117 97.3593L209.553 106.008L216.86 105.329L221.112 112.536L228.686 110.088L231.476 117.704L238.916 116.208L242.113 121.802L245.091 120.207Z" fill="#A87928"/>
<path d="M208.774 84.1222C208.774 84.1222 207.18 86.1168 206.826 88.4739C206.826 88.4739 211.963 92.4631 217.455 92.6446L220.29 90.4685C220.29 90.4685 219.227 86.4793 215.507 84.4848C215.506 84.4848 211.432 83.0342 208.774 84.1222Z" fill="#452A0A"/>
<path d="M128.505 167.615L111.94 165.711C110.871 164.552 109.787 163.291 108.682 161.914C108.65 161.87 108.613 161.827 108.575 161.789C106.417 159.134 103.499 157.116 100.093 155.598C97.9828 154.652 95.687 153.901 93.2688 153.313L99.5403 146.671L116.122 136.89L128.505 167.615Z" fill="#A87928"/>
<path d="M162.183 143.961C162.183 143.961 154.854 157.304 154.966 167.627L161.469 163.829L162.183 143.961Z" fill="#A87928"/>
<path d="M144.721 157.889C144.721 157.889 143.533 167.139 145.085 173.117L134.64 178.471L144.721 157.889Z" fill="#A87928"/>
<path d="M129.093 178.437L131.308 157.801L119.649 173.929L129.093 178.437Z" fill="#A87928"/>
<path d="M134.951 178.419L131.22 159.262L128.981 178.419H134.951Z" fill="#A87928"/>
<path d="M131.219 159.493L134.88 178.191L140.051 160.443L131.219 159.493Z" fill="#A87928"/>
<path d="M136.411 155.162L134.91 178.085L144.77 157.942L136.411 155.162Z" fill="#A87928"/>
<path d="M180.961 141.241C180.961 141.241 183.259 143.422 183.518 148.039L172.042 157.073L174.211 140.959L180.961 141.241Z" fill="#A87928"/>
<path d="M115.145 132.196C115.145 132.196 107.637 138.847 104.162 145.251C104.162 145.251 107.351 171 113.728 183.33C113.728 183.33 100.973 194.935 96.0129 205.452L107.351 224.673H132.152L128.255 214.881L113.374 214.519L107.705 205.09L136.05 189.495C136.05 189.495 146.679 161.208 147.387 145.614C147.387 145.614 144.907 137.635 138.53 133.283L115.145 132.196Z" fill="#FFAF3D"/>
<path d="M113.987 215.177H106.616L111.724 211.413L113.987 215.177Z" fill="#A87928"/>
<path d="M130.572 225.14L127.915 218.875L126.32 225.14H130.572Z" fill="#A87928"/>
<path d="M125.579 225.034L122.922 218.769L121.327 225.034H125.579Z" fill="#A87928"/>
<path d="M180.961 141.241C180.961 147.044 175.75 154.446 175.75 154.446C186.853 147.005 200.448 145.231 200.448 145.231C199.031 162.276 187.339 172.43 187.339 172.43C190.173 165.902 188.048 157.561 188.048 157.561C179.898 165.177 160.057 172.793 160.057 172.793C158.64 159.737 162.183 143.961 162.183 143.961L171.288 135.792L180.961 141.241Z" fill="#FFAF3D"/>
<path d="M194.141 87.6485C194.141 87.6485 191.377 77.5195 184.574 83.5686C177.846 89.5524 185.983 98.0656 186.163 98.251C185.919 98.1256 177.623 93.785 174.742 103.968C171.893 114.038 178.627 117.394 178.977 117.563L168.911 115.49C172.456 96.2708 184.504 77.0514 184.504 77.0514C191.429 74.859 198.2 74.4676 203.461 74.6851C203.462 74.6856 193.343 78.4011 194.141 87.6485Z" fill="#A87928"/>
<path d="M168.912 115.49C168.912 115.49 165.973 115.392 154.015 115.12C142.057 114.849 141.26 120.56 141.26 120.56C141.26 120.56 136.743 113.76 127.442 114.304C118.142 114.848 115.484 121.376 115.484 121.376C115.484 121.376 106.981 115.392 97.1488 119.744C87.3168 124.096 87.8483 127.904 87.8483 127.904C87.8483 127.904 83.5968 125.456 79.3449 127.904C75.0934 130.352 75.8904 133.616 75.8904 133.616C75.8904 133.616 70.5759 132.256 66.8554 136.064C63.135 139.871 62.8694 142.591 62.8694 142.591C62.8694 142.591 60.7435 141.232 57.8205 144.223C54.8975 147.215 54.8975 148.847 54.8975 148.847C54.8975 148.847 51.3046 149.027 49.317 151.568C48.945 152.041 49.1308 152.791 49.6731 153.7C46.4738 154.238 44.55 154.657 44.55 154.657C58.0175 137.978 86.3598 116.578 115.059 112.955C143.758 109.327 168.912 115.49 168.912 115.49Z" fill="#A87928"/>
</g>
<defs>
<filter id="filter0_d" x="-4" y="0" width="305" height="312" filterUnits="userSpaceOnUse" color-interpolation-filters="sRGB">
<feFlood flood-opacity="0" result="BackgroundImageFix"/>
<feColorMatrix in="SourceAlpha" type="matrix" values="0 0 0 0 0 0 0 0 0 0 0 0 0 0 0 0 0 0 127 0"/>
<feOffset dy="4"/>
<feGaussianBlur stdDeviation="2"/>
<feColorMatrix type="matrix" values="0 0 0 0 0 0 0 0 0 0 0 0 0 0 0 0 0 0 0.25 0"/>
<feBlend mode="normal" in2="BackgroundImageFix" result="effect1_dropShadow"/>
<feBlend mode="normal" in="SourceGraphic" in2="effect1_dropShadow" result="shape"/>
</filter>
<clipPath id="clip0">
<rect width="120" height="120" fill="white" transform="translate(103 88)"/>
</clipPath>
</defs>
</svg>
