<svg width="297" height="304" viewBox="0 0 297 304" fill="none" xmlns="http://www.w3.org/2000/svg">
<circle cx="148" cy="150" r="80" fill="#303922"/>
<path d="M139.392 203.545L139.393 203.539C139.615 202.755 139.68 201.935 139.585 201.125C139.49 200.316 139.236 199.533 138.839 198.821C138.441 198.11 137.907 197.484 137.267 196.978C136.628 196.473 135.895 196.099 135.11 195.878C126.742 193.495 119.187 188.864 113.266 182.488C107.345 176.111 103.285 168.234 101.528 159.711C99.7701 151.189 100.382 142.347 103.297 134.148C106.212 125.948 111.319 118.705 118.062 113.204C138.404 96.6356 168.431 99.7061 184.997 120.05C201.563 140.393 198.491 170.424 178.148 186.993C175.077 189.501 171.703 191.616 168.107 193.287L172.875 176.483C173.325 174.899 173.127 173.202 172.325 171.764C171.523 170.327 170.182 169.267 168.599 168.817C167.015 168.368 165.318 168.566 163.881 169.369C162.443 170.171 161.383 171.511 160.934 173.095L153.027 200.961C152.578 202.545 152.776 204.242 153.578 205.68C154.38 207.118 155.72 208.178 157.304 208.627L185.167 216.532C186.75 216.982 188.447 216.783 189.885 215.981C191.322 215.179 192.382 213.839 192.832 212.255C193.281 210.671 193.083 208.974 192.281 207.536C191.479 206.099 190.139 205.039 188.555 204.59L178.612 201.769C181.195 200.237 183.66 198.516 185.987 196.618C192.096 191.643 197.165 185.513 200.905 178.578C204.645 171.643 206.983 164.04 207.785 156.202C208.586 148.363 207.837 140.444 205.579 132.896C203.32 125.348 199.597 118.319 194.623 112.21C184.576 99.8718 170.039 92.0312 154.211 90.4127C138.384 88.7942 122.561 93.5302 110.223 103.579C100.685 111.304 93.7655 121.789 90.4126 133.597C89.4492 136.999 88.7844 140.478 88.4259 143.996C86.9913 158.029 90.5459 172.119 98.4655 183.791C106.385 195.464 118.163 203.973 131.732 207.824C133.315 208.271 135.011 208.072 136.447 207.27C137.884 206.467 138.943 205.128 139.392 203.545Z" fill="#647D3D"/>
<g filter="url(#filter0_d)">
<path d="M118.404 136.36C118.404 136.36 108.719 138.604 102.705 142.576C102.705 142.576 93.6607 166.823 93.6077 180.775C93.6077 180.775 77.0145 184.857 67.7966 191.739L68.9455 214.161L90.8193 226.127L91.8908 215.611L78.9332 208.111L78.2755 197.06L110.455 196.981C110.455 196.981 132.855 177.161 140.661 163.749C140.661 163.749 142.148 155.516 138.527 148.601L118.404 136.36Z" fill="#9A5721"/>
<path d="M251.47 122.383C249.147 122.59 245.092 120.207 245.092 120.207C239.421 123.835 229.499 125.646 229.499 125.646C215.681 123.106 194.072 108.603 194.072 108.603L187.338 143.777C177.066 157.921 134.899 178.233 134.899 178.233C134.899 178.233 124.918 179.778 111.94 165.711C110.872 164.552 109.788 163.29 108.682 161.914C108.65 161.87 108.613 161.827 108.575 161.788C106.417 159.134 103.5 157.116 100.093 155.598C97.983 154.651 95.6872 153.9 93.269 153.313C78.3613 149.663 58.809 152.16 49.6732 153.699C46.4739 154.238 44.5501 154.658 44.5501 154.658C58.0176 137.979 86.36 116.578 115.059 112.956C143.758 109.327 168.912 115.49 168.912 115.49C172.458 96.2715 184.506 77.0521 184.506 77.0521C191.43 74.8597 198.201 74.4683 203.463 74.6858C209.505 74.9254 213.555 75.964 213.555 75.964C238.002 92.2837 252.176 110.05 252.176 110.05C252.176 110.05 253.133 120.696 251.47 122.383Z" fill="#FFAF3D"/>
<path d="M245.091 120.207L239.068 114.042L233.045 114.405L229.502 107.514L222.593 108.602L217.809 103.525L210.723 102.437L206.117 97.3593L209.553 106.008L216.861 105.329L221.113 112.536L228.686 110.088L231.476 117.704L238.917 116.208L242.113 121.802L245.091 120.207Z" fill="#A87928"/>
<path d="M208.777 84.1198C208.777 84.1198 207.182 86.1151 206.828 88.4729C206.828 88.4729 211.966 92.4634 217.458 92.645L220.292 90.4682C220.292 90.4682 219.229 86.4777 215.509 84.4824C215.508 84.4824 211.434 83.0314 208.777 84.1198Z" fill="#452A0A"/>
<path d="M128.505 167.615L111.939 165.711C110.871 164.552 109.787 163.291 108.681 161.914C108.649 161.87 108.612 161.827 108.575 161.789C106.417 159.134 103.499 157.116 100.092 155.598C97.9824 154.652 95.6866 153.901 93.2683 153.313L99.5398 146.671L116.121 136.89L128.505 167.615Z" fill="#A87928"/>
<path d="M162.183 143.961C162.183 143.961 154.855 157.304 154.967 167.627L161.469 163.829L162.183 143.961Z" fill="#A87928"/>
<path d="M145.016 156.722C145.016 156.722 143.767 166.62 145.301 172.874L140.286 175.498L137.209 177.257L134.644 178.235L132.489 178.235L128.109 177.257L124.579 175.769L112.208 139.343L119.861 146.283L122.261 149.915L126.087 152.768L131.016 154.909L135.297 156.141L140.161 156.722L145.016 156.722Z" fill="#A87928"/>
<path d="M124.682 175.768L129.5 168.5L125.325 159.824L110.852 164.513L113.16 167.008L115.681 169.45L119.954 172.931L122.348 174.453L124.682 175.768Z" fill="#A87928"/>
<path d="M180.961 141.241C180.961 141.241 183.259 143.422 183.518 148.039L172.042 157.073L174.211 140.959L180.961 141.241Z" fill="#A87928"/>
<path d="M115.145 132.2C115.145 132.2 107.637 138.851 104.162 145.256C104.162 145.256 107.351 171.004 113.728 183.335C113.728 183.335 100.973 194.94 96.0128 205.457L107.351 224.677H132.152L128.255 214.886L113.374 214.523L107.705 205.094L136.049 189.5C136.049 189.5 146.679 161.213 147.387 145.618C147.387 145.618 144.907 137.64 138.53 133.288L115.145 132.2Z" fill="#FFAF3D"/>
<path d="M113.987 215.181H106.616L111.724 211.418L113.987 215.181Z" fill="#A87928"/>
<path d="M130.572 225.145L127.915 218.88L126.32 225.145H130.572Z" fill="#A87928"/>
<path d="M125.579 225.039L122.921 218.774L121.327 225.039H125.579Z" fill="#A87928"/>
<path d="M180.961 141.241C180.961 147.044 175.75 154.446 175.75 154.446C186.853 147.005 200.448 145.231 200.448 145.231C199.031 162.276 187.339 172.43 187.339 172.43C190.173 165.902 188.048 157.561 188.048 157.561C179.898 165.177 160.057 172.793 160.057 172.793C158.64 159.737 162.183 143.961 162.183 143.961L171.288 135.792L180.961 141.241Z" fill="#FFAF3D"/>
<path d="M194.142 87.6485C194.142 87.6485 191.379 77.5195 184.576 83.5686C177.847 89.5524 185.984 98.0656 186.164 98.251C185.92 98.1256 177.624 93.785 174.743 103.968C171.895 114.038 178.628 117.394 178.979 117.563L168.913 115.49C172.458 96.2708 184.506 77.0514 184.506 77.0514C191.431 74.859 198.202 74.4676 203.463 74.6851C203.464 74.6856 193.345 78.4011 194.142 87.6485Z" fill="#A87928"/>
<path d="M168.912 115.49C168.912 115.49 165.973 115.392 154.015 115.12C142.057 114.849 141.26 120.56 141.26 120.56C141.26 120.56 136.743 113.76 127.442 114.304C118.142 114.848 115.484 121.376 115.484 121.376C115.484 121.376 106.981 115.392 97.1489 119.744C87.3169 124.096 87.8484 127.904 87.8484 127.904C87.8484 127.904 83.5969 125.456 79.345 127.904C75.0935 130.352 75.8905 133.616 75.8905 133.616C75.8905 133.616 70.576 132.256 66.8556 136.064C63.1351 139.871 62.8696 142.591 62.8696 142.591C62.8696 142.591 60.7436 141.232 57.8206 144.223C54.8976 147.215 54.8976 148.847 54.8976 148.847C54.8976 148.847 51.3047 149.027 49.3172 151.568C48.9452 152.041 49.1309 152.791 49.6732 153.7C46.4739 154.238 44.5501 154.657 44.5501 154.657C58.0176 137.978 86.36 116.578 115.059 112.955C143.758 109.327 168.912 115.49 168.912 115.49Z" fill="#A87928"/>
</g>
<defs>
<filter id="filter0_d" x="-4" y="0" width="305" height="312" filterUnits="userSpaceOnUse" color-interpolation-filters="sRGB">
<feFlood flood-opacity="0" result="BackgroundImageFix"/>
<feColorMatrix in="SourceAlpha" type="matrix" values="0 0 0 0 0 0 0 0 0 0 0 0 0 0 0 0 0 0 127 0"/>
<feOffset dy="4"/>
<feGaussianBlur stdDeviation="2"/>
<feColorMatrix type="matrix" values="0 0 0 0 0 0 0 0 0 0 0 0 0 0 0 0 0 0 0.25 0"/>
<feBlend mode="normal" in2="BackgroundImageFix" result="effect1_dropShadow"/>
<feBlend mode="normal" in="SourceGraphic" in2="effect1_dropShadow" result="shape"/>
</filter>
</defs>
</svg>
